<svg xmlns="http://www.w3.org/2000/svg" xmlns:xlink="http://www.w3.org/1999/xlink" width="103" height="47" version="1.1" viewBox="0 0 103 47"><title>Group</title><desc>Created with Sketch.</desc><g id="Page-1" fill="none" fill-rule="evenodd" stroke="none" stroke-width="1"><g id="Group" fill="#000" fill-rule="nonzero"><rect id="Rectangle-path" width="2.542" height="2.542" x="13.083" y="21.011"/><rect id="Rectangle-path" width="2.542" height="2.542" x="17.369" y="21.011"/><rect id="Rectangle-path" width="2.542" height="2.542" x="17.369" y="18.046"/><rect id="Rectangle-path" width="2.542" height="2.542" x="17.369" y="15.081"/><rect id="Rectangle-path" width="2.542" height="2.542" x="17.369" y="12.115"/><rect id="Rectangle-path" width="2.542" height="2.542" x="21.7" y="21.011"/><rect id="Rectangle-path" width="2.542" height="2.542" x="21.7" y="18.046"/><rect id="Rectangle-path" width="2.542" height="2.542" x="26.032" y="21.011"/><rect id="Rectangle-path" width="2.542" height="2.542" x="26.032" y="18.046"/><rect id="Rectangle-path" width="2.542" height="2.542" x="26.032" y="15.081"/><rect id="Rectangle-path" width="2.542" height="2.542" x="26.032" y="12.115"/><rect id="Rectangle-path" width="2.542" height="2.542" x="26.032" y="9.146"/><rect id="Rectangle-path" width="2.542" height="2.542" x="30.364" y="21.011"/><rect id="Rectangle-path" width="2.542" height="2.542" x="30.364" y="18.046"/><rect id="Rectangle-path" width="2.542" height="2.542" x="30.364" y="15.081"/><rect id="Rectangle-path" width="2.542" height="2.542" x="34.696" y="21.011"/><rect id="Rectangle-path" width="2.542" height="2.542" x="34.696" y="18.046"/><rect id="Rectangle-path" width="2.542" height="2.542" x="39.028" y="21.011"/><rect id="Rectangle-path" width="2.542" height="2.542" x="39.028" y="18.046"/><rect id="Rectangle-path" width="2.542" height="2.542" x="39.028" y="15.081"/><rect id="Rectangle-path" width="2.542" height="2.542" x="39.028" y="12.115"/><rect id="Rectangle-path" width="2.542" height="2.542" x="39.028" y="9.146"/><rect id="Rectangle-path" width="2.542" height="2.542" x="43.36" y="21.011"/><rect id="Rectangle-path" width="2.542" height="2.542" x="43.36" y="18.046"/><rect id="Rectangle-path" width="2.542" height="2.542" x="43.36" y="15.081"/><rect id="Rectangle-path" width="2.542" height="2.542" x="43.36" y="12.115"/><rect id="Rectangle-path" width="2.542" height="2.542" x="47.692" y="21.011"/><rect id="Rectangle-path" width="2.542" height="2.542" x="47.692" y="18.046"/><rect id="Rectangle-path" width="2.542" height="2.542" x="47.692" y="15.081"/><rect id="Rectangle-path" width="2.542" height="2.542" x="47.692" y="12.115"/><rect id="Rectangle-path" width="2.542" height="2.542" x="47.692" y="9.146"/><rect id="Rectangle-path" width="2.542" height="2.542" x="47.692" y="6.181"/><rect id="Rectangle-path" width="2.542" height="2.542" x="47.692" y="3.215"/><rect id="Rectangle-path" width="2.542" height="2.542" x="47.692" y=".25"/><rect id="Rectangle-path" width="2.542" height="2.542" x="52.024" y="21.011"/><rect id="Rectangle-path" width="2.542" height="2.542" x="52.024" y="18.046"/><rect id="Rectangle-path" width="2.542" height="2.542" x="52.024" y="15.081"/><rect id="Rectangle-path" width="2.542" height="2.542" x="52.024" y="12.115"/><rect id="Rectangle-path" width="2.542" height="2.542" x="52.024" y="9.146"/><rect id="Rectangle-path" width="2.542" height="2.542" x="52.024" y="6.181"/><rect id="Rectangle-path" width="2.542" height="2.542" x="56.356" y="21.011"/><rect id="Rectangle-path" width="2.542" height="2.542" x="56.356" y="18.046"/><rect id="Rectangle-path" width="2.542" height="2.542" x="60.688" y="21.011"/><rect id="Rectangle-path" width="2.542" height="2.542" x="60.688" y="18.046"/><rect id="Rectangle-path" width="2.542" height="2.542" x="60.688" y="15.081"/><rect id="Rectangle-path" width="2.542" height="2.542" x="60.688" y="12.115"/><rect id="Rectangle-path" width="2.542" height="2.542" x="65.02" y="21.011"/><rect id="Rectangle-path" width="2.542" height="2.542" x="65.02" y="18.046"/><rect id="Rectangle-path" width="2.542" height="2.542" x="69.352" y="21.011"/><rect id="Rectangle-path" width="2.542" height="2.542" x="69.352" y="18.046"/><rect id="Rectangle-path" width="2.542" height="2.542" x="69.352" y="15.081"/><rect id="Rectangle-path" width="2.542" height="2.542" x="69.352" y="12.115"/><rect id="Rectangle-path" width="2.542" height="2.542" x="69.352" y="9.146"/><rect id="Rectangle-path" width="2.542" height="2.542" x="73.684" y="21.011"/><rect id="Rectangle-path" width="2.542" height="2.542" x="78.016" y="21.011"/><rect id="Rectangle-path" width="2.542" height="2.542" x="78.016" y="18.046"/><rect id="Rectangle-path" width="2.542" height="2.542" x="78.016" y="15.081"/><rect id="Rectangle-path" width="2.542" height="2.542" x="82.348" y="21.011"/><rect id="Rectangle-path" width="2.542" height="2.542" x="82.348" y="18.046"/><rect id="Rectangle-path" width="2.542" height="2.542" x="91.011" y="21.011"/><rect id="Rectangle-path" width="2.542" height="2.542" x="91.011" y="18.046"/><rect id="Rectangle-path" width="2.542" height="2.542" x="13.081" y="26.6" fill-opacity=".33"/><rect id="Rectangle-path" width="2.542" height="2.542" x="17.366" y="29.565" fill-opacity=".33"/><rect id="Rectangle-path" width="2.542" height="2.542" x="17.366" y="26.6" fill-opacity=".33"/><rect id="Rectangle-path" width="2.542" height="2.542" x="21.698" y="35.496" fill-opacity=".33"/><rect id="Rectangle-path" width="2.542" height="2.542" x="21.698" y="32.53" fill-opacity=".33"/><rect id="Rectangle-path" width="2.542" height="2.542" x="21.698" y="29.565" fill-opacity=".33"/><rect id="Rectangle-path" width="2.542" height="2.542" x="21.698" y="26.6" fill-opacity=".33"/><rect id="Rectangle-path" width="2.542" height="2.542" x="26.03" y="44.396" fill-opacity=".33"/><rect id="Rectangle-path" width="2.542" height="2.542" x="26.03" y="41.431" fill-opacity=".33"/><rect id="Rectangle-path" width="2.542" height="2.542" x="26.03" y="38.465" fill-opacity=".33"/><rect id="Rectangle-path" width="2.542" height="2.542" x="26.03" y="35.496" fill-opacity=".33"/><rect id="Rectangle-path" width="2.542" height="2.542" x="26.03" y="32.53" fill-opacity=".33"/><rect id="Rectangle-path" width="2.542" height="2.542" x="26.03" y="29.565" fill-opacity=".33"/><rect id="Rectangle-path" width="2.542" height="2.542" x="26.03" y="26.6" fill-opacity=".33"/><rect id="Rectangle-path" width="2.542" height="2.542" x="30.362" y="35.496" fill-opacity=".33"/><rect id="Rectangle-path" width="2.542" height="2.542" x="30.362" y="32.53" fill-opacity=".33"/><rect id="Rectangle-path" width="2.542" height="2.542" x="30.362" y="29.565" fill-opacity=".33"/><rect id="Rectangle-path" width="2.542" height="2.542" x="30.362" y="26.6" fill-opacity=".33"/><rect id="Rectangle-path" width="2.542" height="2.542" x="34.694" y="32.53" fill-opacity=".33"/><rect id="Rectangle-path" width="2.542" height="2.542" x="34.694" y="29.565" fill-opacity=".33"/><rect id="Rectangle-path" width="2.542" height="2.542" x="34.694" y="26.6" fill-opacity=".33"/><rect id="Rectangle-path" width="2.542" height="2.542" x="39.026" y="38.465" fill-opacity=".33"/><rect id="Rectangle-path" width="2.542" height="2.542" x="39.026" y="35.496" fill-opacity=".33"/><rect id="Rectangle-path" width="2.542" height="2.542" x="39.026" y="32.53" fill-opacity=".33"/><rect id="Rectangle-path" width="2.542" height="2.542" x="39.026" y="29.565" fill-opacity=".33"/><rect id="Rectangle-path" width="2.542" height="2.542" x="39.026" y="26.6" fill-opacity=".33"/><rect id="Rectangle-path" width="2.542" height="2.542" x="43.358" y="29.565" fill-opacity=".33"/><rect id="Rectangle-path" width="2.542" height="2.542" x="43.358" y="26.6" fill-opacity=".33"/><rect id="Rectangle-path" width="2.542" height="2.542" x="47.69" y="41.431" fill-opacity=".33"/><rect id="Rectangle-path" width="2.542" height="2.542" x="47.69" y="38.465" fill-opacity=".33"/><rect id="Rectangle-path" width="2.542" height="2.542" x="47.69" y="35.496" fill-opacity=".33"/><rect id="Rectangle-path" width="2.542" height="2.542" x="47.69" y="32.53" fill-opacity=".33"/><rect id="Rectangle-path" width="2.542" height="2.542" x="47.69" y="29.565" fill-opacity=".33"/><rect id="Rectangle-path" width="2.542" height="2.542" x="47.69" y="26.6" fill-opacity=".33"/><rect id="Rectangle-path" width="2.542" height="2.542" x="52.022" y="38.465" fill-opacity=".33"/><rect id="Rectangle-path" width="2.542" height="2.542" x="52.022" y="35.496" fill-opacity=".33"/><rect id="Rectangle-path" width="2.542" height="2.542" x="52.022" y="32.53" fill-opacity=".33"/><rect id="Rectangle-path" width="2.542" height="2.542" x="52.022" y="29.565" fill-opacity=".33"/><rect id="Rectangle-path" width="2.542" height="2.542" x="52.022" y="26.6" fill-opacity=".33"/><rect id="Rectangle-path" width="2.542" height="2.542" x="56.354" y="35.496" fill-opacity=".33"/><rect id="Rectangle-path" width="2.542" height="2.542" x="56.354" y="32.53" fill-opacity=".33"/><rect id="Rectangle-path" width="2.542" height="2.542" x="56.354" y="29.565" fill-opacity=".33"/><rect id="Rectangle-path" width="2.542" height="2.542" x="56.354" y="26.6" fill-opacity=".33"/><rect id="Rectangle-path" width="2.542" height="2.542" x="60.686" y="44.396" fill-opacity=".33"/><rect id="Rectangle-path" width="2.542" height="2.542" x="60.686" y="41.431" fill-opacity=".33"/><rect id="Rectangle-path" width="2.542" height="2.542" x="60.686" y="38.465" fill-opacity=".33"/><rect id="Rectangle-path" width="2.542" height="2.542" x="60.686" y="35.496" fill-opacity=".33"/><rect id="Rectangle-path" width="2.542" height="2.542" x="60.686" y="32.53" fill-opacity=".33"/><rect id="Rectangle-path" width="2.542" height="2.542" x="60.686" y="29.565" fill-opacity=".33"/><rect id="Rectangle-path" width="2.542" height="2.542" x="60.686" y="26.6" fill-opacity=".33"/><rect id="Rectangle-path" width="2.542" height="2.542" x="65.018" y="29.565" fill-opacity=".33"/><rect id="Rectangle-path" width="2.542" height="2.542" x="65.018" y="26.6" fill-opacity=".33"/><rect id="Rectangle-path" width="2.542" height="2.542" x="69.35" y="38.465" fill-opacity=".33"/><rect id="Rectangle-path" width="2.542" height="2.542" x="69.35" y="35.496" fill-opacity=".33"/><rect id="Rectangle-path" width="2.542" height="2.542" x="69.35" y="32.53" fill-opacity=".33"/><rect id="Rectangle-path" width="2.542" height="2.542" x="69.35" y="29.565" fill-opacity=".33"/><rect id="Rectangle-path" width="2.542" height="2.542" x="69.35" y="26.6" fill-opacity=".33"/><rect id="Rectangle-path" width="2.542" height="2.542" x="73.681" y="32.53" fill-opacity=".33"/><rect id="Rectangle-path" width="2.542" height="2.542" x="73.681" y="29.565" fill-opacity=".33"/><rect id="Rectangle-path" width="2.542" height="2.542" x="73.681" y="26.6" fill-opacity=".33"/><rect id="Rectangle-path" width="2.542" height="2.542" x="78.013" y="29.565" fill-opacity=".33"/><rect id="Rectangle-path" width="2.542" height="2.542" x="78.013" y="26.6" fill-opacity=".33"/><rect id="Rectangle-path" width="2.542" height="2.542" x="82.345" y="32.53" fill-opacity=".33"/><rect id="Rectangle-path" width="2.542" height="2.542" x="82.345" y="29.565" fill-opacity=".33"/><rect id="Rectangle-path" width="2.542" height="2.542" x="82.345" y="26.6" fill-opacity=".33"/><rect id="Rectangle-path" width="2.542" height="2.542" x="86.677" y="29.565" fill-opacity=".33"/><rect id="Rectangle-path" width="2.542" height="2.542" x="86.677" y="26.6" fill-opacity=".33"/><rect id="Rectangle-path" width="2.542" height="2.542" x="91.009" y="26.6" fill-opacity=".33"/><rect id="Rectangle-path" width="2.542" height="2.542" x="95.264" y="21.007"/><rect id="Rectangle-path" width="2.542" height="2.542" x="99.596" y="21.007"/><rect id="Rectangle-path" width="2.542" height="2.542" x="95.264" y="32.445" fill-opacity=".33"/><rect id="Rectangle-path" width="2.542" height="2.542" x="95.264" y="29.479" fill-opacity=".33"/><rect id="Rectangle-path" width="2.542" height="2.542" x="95.264" y="26.514" fill-opacity=".33"/><rect id="Rectangle-path" width="2.542" height="2.542" x=".375" y="21.007"/><rect id="Rectangle-path" width="2.542" height="2.542" x="4.66" y="21.007"/><rect id="Rectangle-path" width="2.542" height="2.542" x="4.66" y="18.042"/><rect id="Rectangle-path" width="2.542" height="2.542" x="4.66" y="15.076"/><rect id="Rectangle-path" width="2.542" height="2.542" x="4.66" y="12.111"/><rect id="Rectangle-path" width="2.542" height="2.542" x="8.992" y="21.007"/><rect id="Rectangle-path" width="2.542" height="2.542" x="8.992" y="18.042"/><rect id="Rectangle-path" width="2.542" height="2.542" x=".471" y="26.514" fill-opacity=".33"/><rect id="Rectangle-path" width="2.542" height="2.542" x="4.803" y="29.479" fill-opacity=".33"/><rect id="Rectangle-path" width="2.542" height="2.542" x="4.803" y="26.514" fill-opacity=".33"/><rect id="Rectangle-path" width="2.542" height="2.542" x="9.135" y="32.445" fill-opacity=".33"/><rect id="Rectangle-path" width="2.542" height="2.542" x="9.135" y="29.479" fill-opacity=".33"/><rect id="Rectangle-path" width="2.542" height="2.542" x="9.135" y="26.514" fill-opacity=".33"/><rect id="Rectangle-path" width="2.542" height="2.542" x="86.701" y="21.063"/></g></g></svg>